<?xml version="1.0" standalone="no"?>
<!DOCTYPE svg PUBLIC "-//W3C//DTD SVG 20010904//EN"
 "http://www.w3.org/TR/2001/REC-SVG-20010904/DTD/svg10.dtd">
<svg version="1.0" xmlns="http://www.w3.org/2000/svg"
 width="2133.000000pt" height="2133.000000pt" viewBox="0 0 2133.000000 2133.000000"
 preserveAspectRatio="xMidYMid meet">

<g transform="translate(0.000000,2133.000000) scale(0.100000,-0.100000)"
fill="#CD6799" stroke="none">
<path d="M9175 17993 c-993 -58 -1908 -247 -2950 -609 -2065 -718 -4217 -2088
-5356 -3409 -652 -756 -942 -1495 -854 -2172 78 -595 457 -1213 1095 -1787
424 -382 852 -682 1785 -1251 215 -131 473 -290 575 -353 187 -116 686 -448
695 -462 2 -4 -129 -71 -293 -150 -1055 -509 -1540 -780 -1977 -1107 -658
-492 -1073 -1064 -1195 -1648 -48 -228 -36 -511 31 -745 134 -469 376 -736
792 -875 525 -175 1292 -95 2042 212 504 206 977 549 1332 965 605 712 853
1713 653 2643 -25 115 -123 417 -169 519 -17 38 -30 70 -29 72 2 1 268 136
592 300 369 186 587 291 583 280 -4 -9 -27 -85 -52 -169 -85 -291 -145 -571
-182 -852 -26 -200 -26 -720 0 -885 54 -346 147 -625 291 -876 160 -276 278
-385 494 -455 255 -81 548 -50 759 83 202 127 489 578 819 1286 74 158 143
305 154 327 l21 40 -6 -75 c-41 -607 -26 -839 74 -1088 86 -215 267 -352 467
-352 124 0 293 67 437 173 543 400 1023 1106 1562 2298 114 252 236 537 483
1129 104 250 202 482 217 515 15 33 31 71 37 85 9 22 17 2 62 -155 141 -483
259 -792 453 -1183 103 -209 115 -239 114 -283 0 -28 -8 -67 -17 -87 -11 -24
-186 -205 -505 -522 -496 -492 -602 -606 -736 -785 -188 -251 -297 -507 -272
-639 36 -193 197 -261 619 -260 217 0 353 18 575 74 465 118 927 363 1198 636
153 155 249 307 311 495 78 234 85 478 21 785 -106 516 76 1137 537 1827 142
213 521 698 534 684 2 -2 29 -100 59 -218 117 -466 269 -851 463 -1177 34 -57
62 -107 62 -112 0 -4 -69 -67 -152 -141 -219 -192 -513 -484 -635 -629 -243
-290 -388 -566 -438 -835 -23 -121 -16 -354 12 -436 60 -174 188 -288 367
-326 94 -20 167 -12 366 38 506 127 897 324 1242 626 222 195 374 398 438 586
89 261 77 506 -46 922 -25 88 -49 169 -51 181 -4 19 10 24 184 67 528 131 898
179 1381 178 342 -1 560 -22 867 -82 842 -166 1363 -490 1643 -1020 175 -330
176 -652 5 -936 -89 -147 -229 -282 -433 -418 -117 -78 -190 -143 -190 -168 0
-33 59 -57 139 -57 141 0 345 91 550 245 263 198 425 450 487 757 25 123 15
416 -19 558 -96 402 -294 722 -627 1014 -111 98 -302 240 -385 286 -263 148
-393 209 -619 286 -217 74 -436 124 -706 161 -191 26 -778 26 -990 0 -466 -57
-876 -149 -1341 -303 l-202 -66 -18 23 c-9 12 -47 78 -83 145 -386 707 -432
1293 -170 2153 24 79 44 155 44 168 0 127 -180 210 -480 221 -169 5 -294 -7
-504 -49 -175 -36 -245 -60 -292 -102 -46 -40 -60 -68 -84 -174 -120 -520
-377 -1088 -798 -1763 -101 -163 -610 -931 -632 -954 -10 -10 -49 64 -114 217
-254 595 -259 1119 -17 1880 23 70 41 141 41 156 0 70 -80 131 -235 177 -78
23 -113 27 -265 31 -199 6 -319 -7 -535 -59 -154 -36 -187 -51 -249 -115 -175
-177 -362 -579 -736 -1583 -90 -239 -202 -520 -250 -625 -48 -104 -136 -307
-195 -450 -295 -715 -333 -802 -466 -1065 -107 -212 -193 -361 -294 -506 -68
-96 -200 -258 -253 -307 l-30 -29 -30 54 c-58 104 -67 147 -66 323 1 145 4
171 31 275 43 160 109 339 220 590 283 642 342 796 383 997 71 353 -64 608
-344 653 -108 17 -247 -16 -336 -81 -23 -17 -43 -29 -44 -27 -2 2 5 64 15 138
34 258 21 474 -41 657 -90 270 -307 423 -600 423 -105 0 -255 -21 -387 -54
-463 -114 -959 -449 -1409 -949 -75 -84 -171 -183 -213 -220 -243 -216 -587
-395 -1371 -712 -333 -135 -428 -175 -562 -237 l-107 -49 -73 61 c-190 160
-432 334 -1003 720 -827 560 -1148 805 -1488 1139 -455 446 -697 855 -773
1306 -21 122 -23 390 -5 525 78 585 366 1107 905 1645 544 543 1232 1007 2361
1593 1579 819 2938 1300 4115 1456 298 40 464 50 800 50 327 0 423 -5 675 -40
422 -57 897 -204 1203 -370 494 -269 712 -801 562 -1369 -180 -682 -693 -1350
-1453 -1892 -893 -638 -2133 -1104 -3292 -1240 -114 -13 -230 -17 -480 -17
-293 0 -346 2 -472 22 -459 72 -893 241 -1386 540 -89 54 -171 101 -181 105
-27 10 -63 -16 -71 -52 -9 -44 17 -127 85 -266 303 -621 871 -987 1705 -1099
1101 -148 2718 222 4150 950 679 345 1162 684 1516 1066 466 501 728 925 909
1468 82 244 155 564 181 790 15 130 7 391 -16 514 -107 587 -509 1098 -1140
1450 -231 129 -720 313 -1075 405 -391 101 -781 162 -1235 191 -142 9 -667 11
-800 3z m-235 -8258 c70 -36 74 -82 29 -313 -209 -1067 -558 -2044 -947 -2647
-133 -207 -343 -450 -422 -490 -85 -43 -142 -16 -191 91 -86 187 -130 453
-129 781 0 900 398 1843 970 2304 86 69 202 142 314 195 182 86 310 113 376
79z m6884 -1627 c33 -117 39 -158 40 -278 0 -185 -35 -318 -128 -483 -126
-226 -365 -422 -582 -477 -86 -22 -136 -25 -165 -10 -17 9 -19 22 -19 103 0
51 7 122 15 160 46 218 218 490 465 737 112 112 332 300 351 300 4 0 14 -24
23 -52z m-11186 -820 c54 -229 66 -331 66 -563 0 -168 -5 -235 -22 -335 -66
-388 -200 -699 -439 -1019 -104 -139 -364 -404 -513 -521 -322 -255 -675 -427
-988 -480 -139 -24 -345 -26 -447 -5 -153 32 -270 117 -330 239 -75 153 -69
425 15 678 60 180 198 420 356 618 95 118 385 407 529 526 459 378 1025 715
1575 935 80 32 150 59 156 59 5 0 24 -60 42 -132z m8327 -150 c-91 -350 -558
-864 -867 -953 -56 -16 -153 -17 -153 -2 0 4 232 255 515 557 l515 549 3 -43
c2 -24 -4 -73 -13 -108z"/>
</g>
</svg>
