<svg width="7500" height="5114" viewBox="0 0 7500 5114" fill="none" xmlns="http://www.w3.org/2000/svg">
<g clip-path="url(#clip0_2005_45)">
<path d="M1802.5 4658.09H1513.21C1503.19 4167.59 1475.38 3706.14 1428.65 3274.86H1426.42L985.804 4658.09H765.496L327.105 3274.86H324.879C292.612 3689.38 271.471 4150.83 263.682 4658.09H-0.0195312C16.6705 4041.33 60.0645 3462.57 127.937 2921.79H486.216L903.466 4197.76H905.692L1325.17 2921.79H1667.87C1744.64 3555.3 1789.15 4134.07 1802.5 4658.09Z" fill="#00758F"/>
<path d="M3057.6 3377.65C2939.65 4020.1 2783.88 4486.02 2591.39 4776.52C2441.18 5001.1 2276.5 5112.83 2097.36 5112.83C2049.52 5112.83 1990.55 5098.31 1920.45 5069.26V4915.07C1954.94 4919.54 1995 4922.89 2040.62 4922.89C2124.07 4922.89 2191.94 4899.43 2243.12 4853.62C2304.32 4796.63 2335.47 4734.06 2335.47 4663.67C2335.47 4615.63 2311 4517.31 2264.26 4367.59L1947.15 3377.65H2230.88L2458.98 4118.43C2510.16 4286.02 2531.3 4404.46 2523.52 4470.38C2648.13 4136.3 2734.92 3772.06 2784.99 3377.65H3057.6Z" fill="#00758F"/>
<path d="M4324.93 4177.65C4324.93 4325.13 4271.52 4445.8 4163.59 4540.77C4055.66 4634.63 3912.13 4681.55 3730.76 4681.55C3561.64 4681.55 3398.08 4626.8 3238.96 4519.54L3313.51 4370.94C3450.37 4439.1 3573.88 4473.73 3685.14 4473.73C3789.73 4473.73 3870.96 4450.27 3929.93 4404.46C3988.9 4358.65 4024.51 4293.85 4024.51 4211.17C4024.51 4108.37 3953.3 4020.11 3822 3946.36C3700.72 3879.33 3458.16 3739.66 3458.16 3739.66C3326.87 3643.57 3261.22 3540.78 3261.22 3369.83C3261.22 3229.05 3310.18 3115.09 3408.09 3029.05C3506.01 2941.9 3632.85 2899.45 3788.62 2899.45C3948.85 2899.45 4094.61 2941.9 4225.9 3027.94L4159.14 3176.54C4046.76 3128.5 3935.49 3105.03 3826.45 3105.03C3737.44 3105.03 3669.57 3126.26 3621.72 3169.84C3573.88 3212.29 3543.84 3267.04 3543.84 3334.08C3543.84 3436.87 3617.27 3526.26 3751.9 3601.12C3874.3 3668.15 4122.42 3810.05 4122.42 3810.05C4258.17 3906.14 4324.93 4008.93 4324.93 4177.65Z" fill="#F29111"/>
<path fill-rule="evenodd" clip-rule="evenodd" d="M4842.32 4311.72C4772.22 4198.87 4737.73 4016.75 4737.73 3766.47C4737.73 3329.6 4870.14 3110.61 5134.95 3110.61C5272.92 3110.61 5375.29 3163.13 5439.82 3267.03C5509.92 3379.88 5544.41 3559.77 5544.41 3806.69C5544.41 4246.91 5412.01 4468.14 5147.19 4468.14C5009.22 4468.14 4906.85 4415.63 4842.32 4311.72ZM5871.54 4700.54L5553.31 4543C5581.13 4519.54 5608.95 4494.96 5632.31 4465.91C5766.95 4306.13 5834.82 4070.38 5834.82 3758.65C5834.82 3184.35 5610.06 2897.21 5161.65 2897.21C4941.35 2897.21 4770 2969.83 4646.49 3116.2C4511.86 3275.97 4443.98 3510.61 4443.98 3821.22C4443.98 4126.24 4504.07 4349.71 4623.12 4492.72C4732.17 4621.21 4896.84 4686.02 5117.15 4686.02C5199.49 4686.02 5275.15 4675.96 5343.02 4655.85L5756.93 4897.19L5871.54 4700.54Z" fill="#F29111"/>
<path d="M6908.53 4658.09H6086.27V2921.79H6363.33V4444.68H6908.53V4658.09Z" fill="#F29111"/>
<path d="M7106.59 4658.09H7152.21V4481.55H7212.29V4445.8H7044.28V4481.55H7106.59V4658.09ZM7454.85 4658.09H7498.25V4445.8H7433.71L7380.3 4591.05L7322.45 4445.8H7260.14V4658.09H7301.3V4496.08H7303.53L7363.61 4658.09H7394.77L7454.85 4496.08V4658.09Z" fill="#F29111"/>
<path fill-rule="evenodd" clip-rule="evenodd" d="M7255.68 2340.79C7088.78 2336.32 6958.6 2353.08 6850.67 2400.01C6819.51 2412.3 6769.44 2412.3 6764.99 2452.52C6781.68 2469.28 6783.91 2496.1 6798.37 2519.56C6822.85 2562.02 6867.36 2617.89 6907.41 2646.94C6950.81 2680.45 6995.31 2713.97 7040.93 2743.02C7122.16 2793.3 7214.51 2822.35 7293.51 2872.63C7339.13 2901.68 7385.86 2939.67 7431.48 2970.95C7454.85 2987.71 7469.31 3014.53 7498.24 3025.7V3019C7483.77 3000.01 7479.32 2973.19 7464.86 2951.96C7443.72 2930.73 7422.58 2911.74 7402.55 2891.63C7342.47 2810.06 7266.8 2738.55 7185.58 2679.34C7118.82 2633.53 6971.95 2569.84 6945.24 2492.75C6945.24 2492.75 6943.02 2490.51 6940.79 2488.28C6986.41 2483.81 7040.93 2467.05 7085.44 2454.76C7156.65 2435.76 7221.19 2440.23 7294.62 2421.24C7328 2412.3 7361.38 2402.24 7394.76 2392.19V2373.19C7356.93 2335.21 7330.23 2284.93 7290.17 2249.17C7183.35 2156.44 7066.52 2067.05 6945.24 1991.08C6880.71 1948.62 6797.26 1921.8 6728.27 1886.05C6703.79 1873.76 6661.51 1867.05 6647.05 1845.83C6609.22 1800.02 6588.08 1738.56 6561.37 1683.82C6501.29 1568.73 6442.32 1440.24 6390.02 1318.46C6352.19 1236.89 6329.94 1155.33 6283.21 1079.35C6068.46 722.93 5833.69 507.291 5475.41 295.002C5398.64 251.427 5306.28 232.433 5208.37 208.97C5156.07 206.735 5103.78 202.265 5051.48 201.148C5018.1 186.623 4984.72 146.4 4955.79 127.406C4836.74 51.4288 4529.64 -111.698 4441.74 103.943C4385 240.254 4525.19 374.331 4573.04 443.605C4608.64 491.649 4654.26 546.397 4679.85 601.145C4694.32 636.899 4698.77 674.887 4713.23 712.875C4746.61 805.612 4777.77 908.404 4822.27 994.437C4845.64 1038.01 4870.12 1084.94 4899.05 1124.04C4915.74 1147.51 4944.67 1157.56 4951.34 1195.55C4922.41 1238.01 4920.19 1300.58 4903.5 1353.09C4827.84 1589.96 4857.88 1883.81 4963.58 2058.11C4996.96 2110.63 5075.96 2225.71 5182.78 2182.14C5276.24 2144.15 5256.21 2024.6 5282.92 1919.57C5289.59 1893.87 5285.14 1877.11 5297.38 1860.35V1864.82C5326.31 1922.92 5356.35 1979.9 5383.06 2039.12C5447.59 2141.91 5561.09 2249.17 5654.55 2319.56C5704.62 2357.55 5744.68 2422.36 5806.98 2445.82V2439.12H5802.53C5790.29 2420.12 5771.38 2412.3 5754.69 2397.78C5716.86 2359.79 5675.69 2313.98 5645.65 2271.52C5557.75 2154.2 5480.97 2023.48 5411.99 1889.4C5378.61 1824.6 5349.68 1753.09 5321.86 1688.28C5309.62 1663.7 5309.62 1625.72 5288.48 1612.31C5257.33 1658.12 5211.71 1698.34 5188.34 1754.21C5148.29 1844.71 5144.95 1955.32 5129.37 2071.52C5121.58 2073.76 5124.92 2071.52 5121.58 2075.99C5054.82 2059.23 5031.46 1989.96 5006.98 1931.86C4944.67 1783.26 4933.54 1544.15 4988.06 1372.09C5002.53 1328.51 5065.95 1189.97 5040.36 1147.51C5028.12 1107.29 4985.84 1084.94 4963.58 1052.54C4936.88 1012.31 4906.84 962.035 4889.03 918.46C4838.96 801.143 4813.37 670.417 4759.97 553.1C4734.37 498.352 4690.98 441.369 4655.37 391.09C4615.32 334.108 4571.92 295.002 4540.77 227.964C4530.76 204.5 4516.29 166.512 4531.87 141.931C4536.32 125.172 4544.11 118.468 4560.8 115.116C4587.5 91.6522 4665.39 121.819 4692.09 134.109C4769.98 165.394 4834.51 195.562 4899.05 239.137C4927.98 260.365 4959.13 299.471 4996.96 310.645H5041.47C5108.23 325.17 5183.89 315.114 5246.2 334.108C5356.35 369.862 5457.61 422.375 5546.62 479.358C5820.34 653.658 6046.21 900.582 6198.64 1196.67C6224.24 1244.71 6234.25 1289.41 6257.62 1339.69C6301.01 1442.48 6355.53 1547.5 6400.04 1648.06C6443.43 1746.38 6485.71 1846.94 6548.02 1929.62C6579.18 1973.2 6704.91 1996.66 6760.54 2020.13C6801.71 2039.12 6867.36 2055.88 6905.19 2078.23C6976.4 2121.8 7047.61 2172.08 7114.37 2221.24C7145.52 2246.94 7250.11 2299.45 7255.68 2340.79Z" fill="#00758F"/>
<path fill-rule="evenodd" clip-rule="evenodd" d="M5126.05 518.465C5090.44 518.465 5065.96 522.934 5040.37 528.521V532.99H5044.82C5061.51 566.509 5090.44 589.972 5111.58 619.022C5128.27 652.542 5142.74 686.061 5159.43 719.58C5161.65 717.345 5163.88 715.111 5163.88 715.111C5192.81 693.882 5208.38 660.362 5208.38 610.083C5196.14 595.558 5193.92 581.034 5182.79 566.509C5169.44 545.281 5142.74 535.224 5126.05 518.465Z" fill="#00758F"/>
</g>
<defs>
<clipPath id="clip0_2005_45">
<rect width="7500" height="5113.64" fill="white"/>
</clipPath>
</defs>
</svg>
