<svg width="1500" height="1500" viewBox="0 0 1500 1500" fill="none" xmlns="http://www.w3.org/2000/svg">
<g clip-path="url(#clip0_2005_62)">
<path d="M56.25 0H1443.75C1474.82 0 1500 25.1838 1500 56.25V1443.75C1500 1474.82 1474.82 1500 1443.75 1500H56.25C25.1838 1500 0 1474.82 0 1443.75V56.25C0 25.1838 25.1838 0 56.25 0Z" fill="white"/>
<path d="M56.25 0H1443.75C1474.82 0 1500 25.1838 1500 56.25V1443.75C1500 1474.82 1474.82 1500 1443.75 1500H56.25C25.1838 1500 0 1474.82 0 1443.75V56.25C0 25.1838 25.1838 0 56.25 0ZM833.827 798V674.977H299.988V798H490.581V1345.77H642.3V798H833.827ZM894.317 1331.3C918.785 1343.78 947.723 1353.13 981.133 1359.37C1014.54 1365.61 1049.75 1368.73 1086.76 1368.73C1122.84 1368.73 1157.11 1365.29 1189.57 1358.43C1222.04 1351.58 1250.5 1340.27 1274.97 1324.52C1299.44 1308.77 1318.81 1288.19 1333.08 1262.77C1347.35 1237.35 1354.49 1205.93 1354.49 1168.51C1354.49 1141.37 1350.41 1117.6 1342.26 1097.17C1334.1 1076.74 1322.34 1058.57 1306.97 1042.67C1291.6 1026.76 1273.17 1012.49 1251.68 999.865C1230.19 987.237 1205.96 975.306 1178.98 964.079C1159.22 955.967 1141.5 948.092 1125.81 940.454C1110.13 932.815 1096.8 925.015 1085.82 917.065C1074.84 909.11 1066.37 900.692 1060.41 891.802C1054.45 882.917 1051.47 872.856 1051.47 861.629C1051.47 851.337 1054.14 842.06 1059.47 833.798C1064.8 825.531 1072.33 818.435 1082.06 812.51C1091.78 806.585 1103.7 801.987 1117.82 798.71C1131.93 795.438 1147.62 793.8 1164.87 793.8C1177.41 793.8 1190.67 794.735 1204.63 796.604C1218.59 798.479 1232.63 801.363 1246.74 805.258C1260.85 809.158 1274.58 814.067 1287.91 819.998C1301.24 825.923 1313.56 832.783 1324.85 840.577V700.708C1301.95 691.973 1276.93 685.5 1249.8 681.294C1222.66 677.083 1191.53 674.977 1156.4 674.977C1120.64 674.977 1086.76 678.796 1054.77 686.44C1022.77 694.079 994.621 706.01 970.31 722.227C945.998 738.444 926.787 759.104 912.669 784.206C898.552 809.313 891.496 839.331 891.496 874.258C891.496 918.86 904.437 956.908 930.317 988.402C956.192 1019.9 995.481 1046.57 1048.18 1068.4C1068.88 1076.82 1088.18 1085.08 1106.05 1093.19C1123.93 1101.3 1139.38 1109.72 1152.4 1118.45C1165.42 1127.19 1175.69 1136.69 1183.22 1146.99C1190.75 1157.28 1194.51 1168.97 1194.51 1182.08C1194.51 1191.74 1192.16 1200.71 1187.45 1208.97C1182.75 1217.24 1175.61 1224.41 1166.05 1230.49C1156.48 1236.57 1144.56 1241.33 1130.28 1244.76C1116.01 1248.19 1099.31 1249.9 1080.17 1249.9C1047.55 1249.9 1015.25 1244.22 983.25 1232.83C951.254 1221.45 921.612 1204.37 894.317 1181.61V1331.3Z" fill="#3178C6"/>
</g>
<defs>
<clipPath id="clip0_2005_62">
<rect width="1500" height="1500" fill="white"/>
</clipPath>
</defs>
</svg>
